<svg width="1512" height="404" viewBox="0 0 1512 404" fill="none" xmlns="http://www.w3.org/2000/svg">
<rect width="1512" height="404" fill="url(#paint0_linear_62_1183)"/>
<g opacity="0.12">
<path d="M149.331 95.336C150.65 92.4656 151.283 89.3273 151.18 86.1697C151.076 83.0121 150.238 79.9221 148.733 77.1445C147.228 74.3668 145.096 71.978 142.508 70.1671C139.919 68.3563 136.944 67.1733 133.818 66.7118C131.54 61.849 127.431 58.0843 122.388 56.2389C117.344 54.3935 111.776 54.617 106.897 56.8607C102.018 59.1045 98.2239 63.1864 96.3424 68.2163C94.4609 73.2462 94.6446 78.816 96.8533 83.711L95.1968 89.3443C94.9513 90.1791 94.9352 91.0646 95.1502 91.9077C95.3652 92.7509 95.8034 93.5206 96.4187 94.1358C97.034 94.7511 97.8037 95.1893 98.6468 95.4043C99.49 95.6193 100.375 95.6033 101.21 95.3578L106.844 93.7012C108.594 94.5037 110.45 95.0533 112.356 95.3336C114.611 100.235 118.72 104.041 123.78 105.914C128.84 107.788 134.436 107.576 139.34 105.326L144.974 106.983C145.808 107.228 146.694 107.244 147.537 107.029C148.38 106.814 149.15 106.376 149.765 105.761C150.38 105.146 150.819 104.376 151.034 103.533C151.249 102.69 151.233 101.804 150.987 100.969L149.331 95.336ZM107.108 87.6853C106.83 87.685 106.553 87.7249 106.287 87.804L101.268 89.2789L102.748 84.2583C102.96 83.5302 102.88 82.748 102.523 82.0786C100.875 79.0078 100.386 75.4471 101.144 72.0457C101.903 68.6442 103.858 65.6286 106.655 63.5487C109.451 61.4688 112.901 60.463 116.377 60.7148C119.853 60.9666 123.123 62.4592 125.59 64.9204C128.057 67.3816 129.558 70.6476 129.818 74.1228C130.078 77.598 129.081 81.0511 127.008 83.8524C124.935 86.6536 121.924 88.6166 118.524 89.3833C115.125 90.15 111.563 89.6694 108.488 88.0292C108.063 87.802 107.589 87.6838 107.108 87.6853ZM143.651 93.6915C143.295 94.3609 143.214 95.1431 143.426 95.8712L144.901 100.892L139.89 99.4314C139.157 99.2152 138.369 99.2961 137.696 99.6566C134.571 101.327 130.944 101.799 127.497 100.982C124.049 100.166 121.019 98.1186 118.975 95.2246C124.024 94.3125 128.542 91.5245 131.621 87.4202C134.7 83.3158 136.113 78.1988 135.577 73.0959C137.565 73.7808 139.381 74.8889 140.899 76.3439C142.417 77.7989 143.601 79.566 144.37 81.5232C145.138 83.4804 145.473 85.5812 145.351 87.6804C145.228 89.7795 144.652 91.8272 143.661 93.6818L143.651 93.6915Z" fill="white"/>
</g>
<g opacity="0.12" clip-path="url(#clip0_62_1183)">
<path d="M1449.75 89.3149C1446.77 82.8334 1445.34 75.7468 1445.58 68.6168C1445.81 61.4868 1447.7 54.5093 1451.1 48.2373C1454.5 41.9652 1459.31 36.571 1465.16 32.482C1471 28.3931 1477.72 25.7217 1484.78 24.6797C1489.92 13.699 1499.2 5.1982 1510.59 1.03112C1521.98 -3.13595 1534.55 -2.63119 1545.57 2.43532C1556.59 7.50183 1565.15 16.7191 1569.4 28.0769C1573.65 39.4347 1573.24 52.0116 1568.25 63.0649L1571.99 75.7852C1572.54 77.6702 1572.58 79.6698 1572.09 81.5737C1571.61 83.4776 1570.62 85.2155 1569.23 86.6049C1567.84 87.9942 1566.1 88.9837 1564.2 89.4692C1562.29 89.9548 1560.3 89.9184 1558.41 89.3641L1545.69 85.6235C1541.74 87.4355 1537.55 88.6766 1533.24 89.3094C1528.15 100.377 1518.87 108.97 1507.45 113.201C1496.02 117.432 1483.38 116.955 1472.31 111.873L1459.59 115.614C1457.71 116.168 1455.71 116.205 1453.8 115.719C1451.9 115.234 1450.16 114.244 1448.77 112.855C1447.38 111.466 1446.39 109.728 1445.91 107.824C1445.42 105.92 1445.46 103.92 1446.01 102.035L1449.75 89.3149ZM1545.09 72.0391C1545.72 72.0384 1546.35 72.1287 1546.95 72.3071L1558.28 75.6376L1554.94 64.3008C1554.46 62.6567 1554.64 60.8904 1555.45 59.379C1559.17 52.4449 1560.27 44.4045 1558.56 36.7239C1556.85 29.0432 1552.43 22.2338 1546.12 17.5372C1539.8 12.8405 1532.01 10.5695 1524.16 11.138C1516.31 11.7066 1508.93 15.0769 1503.36 20.6346C1497.79 26.1922 1494.4 33.5669 1493.81 41.4142C1493.22 49.2615 1495.48 57.0587 1500.16 63.3841C1504.84 69.7096 1511.64 74.142 1519.31 75.8733C1526.99 77.6046 1535.03 76.5195 1541.98 72.8157C1542.94 72.3026 1544.01 72.0357 1545.09 72.0391ZM1462.58 85.6016C1463.38 87.113 1463.56 88.8794 1463.08 90.5235L1459.75 101.86L1471.07 98.5626C1472.72 98.0744 1474.5 98.2571 1476.02 99.0711C1483.08 102.843 1491.27 103.908 1499.05 102.065C1506.84 100.222 1513.68 95.5981 1518.3 89.0633C1506.9 87.0037 1496.69 80.7083 1489.74 71.4405C1482.79 62.1726 1479.6 50.618 1480.81 39.0954C1476.32 40.6418 1472.22 43.1441 1468.79 46.4296C1465.36 49.715 1462.69 53.7052 1460.95 58.1248C1459.22 62.5443 1458.46 67.2879 1458.74 72.028C1459.02 76.7681 1460.32 81.3917 1462.55 85.5797L1462.58 85.6016Z" fill="white"/>
</g>
<g opacity="0.12">
<path d="M58.0082 377.288C59.3919 374.278 60.0556 370.988 59.9469 367.678C59.8382 364.368 58.96 361.128 57.3819 358.216C55.8038 355.304 53.5692 352.799 50.8551 350.901C48.1411 349.003 45.0222 347.762 41.7455 347.279C39.3567 342.18 35.0489 338.234 29.7616 336.299C24.4743 334.364 18.6366 334.598 13.5214 336.951C8.40626 339.303 4.4287 343.583 2.45618 348.856C0.483657 354.129 0.676203 359.968 2.99183 365.1L1.25511 371.006C0.997744 371.881 0.980889 372.81 1.20631 373.694C1.43174 374.578 1.89112 375.384 2.53618 376.03C3.18123 376.675 3.98814 377.134 4.8721 377.359C5.75605 377.585 6.68441 377.568 7.5596 377.311L13.4655 375.574C15.301 376.415 17.2467 376.991 19.2444 377.285C21.6091 382.424 25.9169 386.414 31.2215 388.378C36.526 390.342 42.3934 390.12 47.5346 387.761L53.4405 389.498C54.3157 389.755 55.244 389.772 56.128 389.547C57.0119 389.321 57.8188 388.862 58.4639 388.217C59.1089 387.572 59.5683 386.765 59.7937 385.881C60.0192 384.997 60.0023 384.069 59.745 383.194L58.0082 377.288ZM13.7422 369.267C13.4508 369.267 13.1609 369.308 12.8815 369.391L7.62054 370.938L9.1719 365.674C9.39437 364.911 9.30963 364.091 8.93577 363.389C7.20831 360.169 6.69538 356.436 7.4905 352.87C8.28562 349.304 10.3358 346.143 13.2673 343.962C16.1989 341.782 19.8164 340.727 23.4604 340.991C27.1045 341.255 30.5323 342.82 33.1189 345.4C35.7055 347.981 37.2787 351.405 37.5516 355.048C37.8244 358.691 36.7788 362.312 34.6054 365.248C32.432 368.185 29.2755 370.243 25.7114 371.047C22.1473 371.851 18.4131 371.347 15.1895 369.627C14.7444 369.389 14.2471 369.265 13.7422 369.267ZM52.0541 375.564C51.6803 376.265 51.5955 377.086 51.818 377.849L53.3643 383.112L48.111 381.581C47.3429 381.355 46.5166 381.439 45.8106 381.817C42.535 383.569 38.7325 384.063 35.1181 383.207C31.5036 382.352 28.3263 380.205 26.1836 377.171C31.4773 376.215 36.2134 373.292 39.4417 368.989C42.6699 364.686 44.1514 359.321 43.5889 353.972C45.6732 354.69 47.5768 355.851 49.1684 357.377C50.7599 358.902 52.0014 360.755 52.8073 362.807C53.6131 364.859 53.9639 367.061 53.8357 369.262C53.7074 371.462 53.103 373.609 52.0643 375.554L52.0541 375.564Z" fill="white"/>
</g>
<g opacity="0.12">
<path d="M341.541 144.75C340.669 142.852 340.25 140.776 340.319 138.688C340.387 136.6 340.941 134.557 341.937 132.72C342.932 130.883 344.341 129.303 346.053 128.106C347.765 126.908 349.733 126.126 351.799 125.821C353.306 122.605 356.024 120.116 359.359 118.895C362.694 117.675 366.376 117.823 369.602 119.306C372.829 120.79 375.338 123.49 376.582 126.816C377.826 130.142 377.705 133.825 376.244 137.062L377.34 140.787C377.502 141.34 377.513 141.925 377.37 142.483C377.228 143.04 376.938 143.549 376.532 143.956C376.125 144.363 375.616 144.653 375.058 144.795C374.501 144.937 373.915 144.926 373.363 144.764L369.638 143.669C368.48 144.199 367.253 144.563 365.993 144.748C364.501 147.989 361.784 150.506 358.438 151.745C355.092 152.984 351.391 152.844 348.148 151.356L344.423 152.452C343.871 152.614 343.285 152.625 342.728 152.482C342.17 152.34 341.661 152.05 341.254 151.644C340.847 151.237 340.557 150.728 340.415 150.17C340.273 149.613 340.284 149.027 340.446 148.475L341.541 144.75ZM369.463 139.69C369.647 139.69 369.83 139.717 370.006 139.769L373.324 140.744L372.346 137.424C372.206 136.943 372.259 136.425 372.495 135.983C373.585 133.952 373.908 131.597 373.407 129.348C372.905 127.099 371.612 125.105 369.763 123.729C367.914 122.354 365.632 121.689 363.333 121.855C361.035 122.022 358.872 123.009 357.241 124.636C355.609 126.264 354.617 128.424 354.445 130.722C354.273 133.02 354.932 135.303 356.303 137.156C357.674 139.008 359.665 140.306 361.913 140.813C364.161 141.32 366.517 141.002 368.55 139.918C368.831 139.768 369.145 139.689 369.463 139.69ZM345.297 143.662C345.533 144.105 345.586 144.622 345.446 145.104L344.471 148.424L347.784 147.458C348.269 147.315 348.79 147.369 349.235 147.607C351.302 148.712 353.7 149.023 355.98 148.484C358.26 147.944 360.264 146.59 361.615 144.676C358.276 144.073 355.289 142.229 353.253 139.515C351.216 136.801 350.282 133.417 350.637 130.043C349.322 130.495 348.121 131.228 347.117 132.19C346.114 133.153 345.33 134.321 344.822 135.615C344.314 136.91 344.092 138.299 344.173 139.687C344.254 141.075 344.636 142.429 345.291 143.656L345.297 143.662Z" fill="white"/>
</g>
<defs>
<linearGradient id="paint0_linear_62_1183" x1="756" y1="0" x2="756" y2="404" gradientUnits="userSpaceOnUse">
<stop stop-color="#255E97"/>
<stop offset="1" stop-color="#1D4670"/>
</linearGradient>
<clipPath id="clip0_62_1183">
<rect width="142.433" height="142.433" fill="white" transform="matrix(-1 0 0 1 1512 0)"/>
</clipPath>
</defs>
</svg>
