<svg width="150" height="52" viewBox="0 0 150 52" fill="none" xmlns="http://www.w3.org/2000/svg">
<path d="M4.12584 9.27107C4.57505 9.04698 5.1205 9.22698 5.34396 9.67312C5.56738 10.1193 5.38438 10.6628 4.93522 10.8869L3.40712 11.753L3.36458 11.7729C2.924 11.9656 2.40548 11.7831 2.18903 11.3509C1.96559 10.9047 2.14874 10.3614 2.59798 10.1373L4.12584 9.27107Z" fill="#FBFDFF"/>
<path d="M5.34652 2.17481C5.76656 2.44905 5.8823 3.00808 5.60492 3.42331C5.32749 3.83851 4.76195 3.9529 4.34188 3.67872L2.82247 2.79773L2.78382 2.77111C2.3955 2.48859 2.29536 1.95149 2.56407 1.54927C2.84152 1.13403 3.40703 1.01984 3.8271 1.29409L5.34652 2.17481Z" fill="#FBFDFF"/>
<path d="M2.90734 5.72026C3.40921 5.74922 3.79094 6.17589 3.75981 6.6732C3.72863 7.17052 3.29646 7.55035 2.79461 7.52146L1.03513 7.51284L0.988256 7.50897C0.509691 7.45708 0.152512 7.04166 0.18268 6.55992C0.213861 6.06257 0.646102 5.68292 1.148 5.71188L2.90734 5.72026Z" fill="#FBFDFF"/>
<path d="M29.1156 33.0033C29.5658 37.425 26.4754 41.597 22.0106 42.3017C24.1849 39.6915 25.3798 36.2939 26.5808 33.1647C24.8393 36.644 22.2672 40.4045 18.6615 42.1937C15.479 41.525 13.7017 38.9531 13.0869 35.9194C14.768 35.6035 17.1889 34.6996 19.7084 32.5348C22.1224 30.4568 24.5672 28.2313 26.1097 25.4102C27.4537 27.7644 28.8277 30.2659 29.1156 33.0033Z" fill="white"/>
<path d="M24.301 23.772C22.4628 27.4683 19.6109 30.6776 16.0467 32.8129C15.1034 33.3749 14.0377 33.7284 12.9595 33.9304C12.9595 33.9304 12.9718 33.3126 13.058 32.9291C13.1304 32.607 13.3275 32.1275 13.3275 32.1275C14.5737 31.9785 16.1167 31.2059 17.6262 30.0544C20.0582 28.1924 22.25 26.0366 24.301 23.772Z" fill="white"/>
<path d="M19.4109 4.36029C21.2802 4.36029 22.7865 4.9643 23.8397 6.07371C24.8743 7.16357 25.3559 8.61884 25.4428 10.1236C25.615 13.1055 24.2695 16.617 21.874 19.1477C19.864 21.2712 17.795 23.5857 16.0713 25.7853C14.3298 28.0076 13.0085 30.0286 12.4159 31.5774C10.0492 37.7617 14.9159 44.071 20.6368 44.071C23.6693 44.071 26.1181 43.1618 27.7978 41.6062C29.4673 40.06 30.4842 37.7769 30.4842 34.8052C30.4842 31.4589 29.0591 28.027 27.5578 25.3613C26.8153 24.0427 26.0718 22.9424 25.5149 22.1732C25.2368 21.7892 25.0061 21.4889 24.8467 21.2868C24.7671 21.1858 24.7052 21.1093 24.6643 21.0593C24.6438 21.0342 24.6288 21.0156 24.6192 21.004C24.6144 20.9982 24.6108 20.9941 24.6088 20.9917L24.6072 20.9898C24.1936 20.5002 24.2572 19.7698 24.749 19.3581C25.2408 18.9465 25.9746 19.0096 26.3882 19.499L25.5506 20.2003C26.3883 19.4991 26.3886 19.4994 26.3888 19.4997L26.3891 19.5003C26.3896 19.5008 26.3901 19.5015 26.3907 19.5023C26.392 19.5037 26.3937 19.5054 26.3956 19.5077C26.3995 19.5124 26.405 19.519 26.4118 19.5271C26.4255 19.5435 26.4447 19.5669 26.4693 19.5969C26.5185 19.6571 26.5889 19.7442 26.6774 19.8564C26.8544 20.0809 27.1042 20.4063 27.4027 20.8185C27.9988 21.6419 28.7929 22.8168 29.5878 24.2282C31.1616 27.0227 32.8112 30.8712 32.8112 34.8052C32.8112 38.3321 31.5869 41.2611 29.383 43.3022C27.1893 45.3339 24.1326 46.3874 20.6368 46.3874C13.3008 46.3874 7.28917 38.467 10.2414 30.7526L10.3115 30.5746C11.0589 28.7228 12.5247 26.5452 14.2368 24.3604C16.0219 22.0825 18.1442 19.7102 20.1803 17.5591C22.1914 15.4345 23.2508 12.5285 23.1196 10.2568C23.0549 9.13482 22.7077 8.25392 22.1483 7.66466C21.6075 7.09499 20.7544 6.67675 19.4109 6.67674H11.5354V8.20791L18.9957 13.1588L19.0447 13.1931C19.539 13.5583 19.6637 14.2493 19.3184 14.765C18.9731 15.2806 18.2844 15.4316 17.7556 15.1179L17.7049 15.0862L9.72651 9.79142C9.40284 9.57661 9.20838 9.21498 9.20838 8.82774V5.51851L9.21001 5.45905C9.2411 4.84703 9.74936 4.36031 10.3719 4.36029H19.4109Z" fill="#FBFDFF"/>
<path d="M6.84077 4.19482C7.46332 4.19482 7.97157 4.68155 8.00266 5.29359L8.00428 5.35305V8.33136L8.00266 8.39082C7.97157 9.00285 7.46332 9.48958 6.84077 9.48958C6.21821 9.48958 5.70996 9.00285 5.67887 8.39082L5.67725 8.33136V5.35305C5.67725 4.71338 6.19817 4.19482 6.84077 4.19482Z" fill="#FBFDFF"/>
<path d="M12.0486 10.4142C12.4134 9.92074 13.107 9.79351 13.6264 10.1349C14.1626 10.4875 14.31 11.206 13.9559 11.7398L11.9408 14.7772C11.5867 15.311 10.8648 15.458 10.3287 15.1056C9.79249 14.7531 9.64476 14.0345 9.99881 13.5007L12.0142 10.4633L12.0486 10.4142Z" fill="#FBFDFF"/>
<path d="M97.7684 29.8182V31.7871H88.7939V17.9842H91.5742V29.8182H97.7684Z" fill="#FBFDFF"/>
<path d="M101.337 18.1465C100.901 18.1465 100.526 17.9909 100.213 17.6797C99.8993 17.3684 99.7426 16.9963 99.7426 16.5633C99.7426 16.1302 99.8993 15.7581 100.213 15.4468C100.526 15.1356 100.901 14.98 101.337 14.98C101.787 14.98 102.168 15.1356 102.482 15.4468C102.795 15.7581 102.952 16.1302 102.952 16.5633C102.952 16.9963 102.795 17.3684 102.482 17.6797C102.168 17.9909 101.787 18.1465 101.337 18.1465ZM100.008 20.6027H102.707V31.7871H100.008V20.6027Z" fill="#FBFDFF"/>
<path d="M119.378 20.2982C120.714 20.2982 121.634 20.6568 122.138 21.374C122.643 22.0777 122.895 23.0994 122.895 24.4391V31.7871H120.217V24.7436C120.217 23.8504 120.094 23.2212 119.849 22.8558C119.617 22.4904 119.188 22.3077 118.561 22.3077C117.77 22.3077 116.891 22.6663 115.924 23.3836L115.883 23.2821C115.924 23.6474 115.944 24.0331 115.944 24.4391V31.7871H113.266V24.7436C113.266 23.8504 113.143 23.2212 112.898 22.8558C112.666 22.4904 112.237 22.3077 111.61 22.3077C110.806 22.3077 109.941 22.6596 109.014 23.3633V31.7871H106.315V20.6027H108.339L108.666 21.6379C109.988 20.7448 111.242 20.2982 112.428 20.2982C113.205 20.2982 113.832 20.4267 114.309 20.6839C114.799 20.9274 115.174 21.2861 115.433 21.7597C116.837 20.7854 118.152 20.2982 119.378 20.2982Z" fill="#FBFDFF"/>
<path d="M131.96 20.2982C132.942 20.2982 133.807 20.5282 134.557 20.9883C135.32 21.4349 135.913 22.098 136.335 22.9776C136.758 23.8572 136.969 24.906 136.969 26.1239C136.969 28.1402 136.403 29.6423 135.272 30.6301C134.155 31.6045 132.676 32.0916 130.836 32.0916C130.168 32.0916 129.575 32.0172 129.058 31.8683V36.537H126.359V20.5824H128.383L128.669 21.4552C129.623 20.6839 130.72 20.2982 131.96 20.2982ZM130.693 30.1227C131.892 30.1227 132.778 29.7776 133.351 29.0874C133.937 28.3838 134.23 27.3756 134.23 26.063C134.23 24.7097 133.991 23.7422 133.514 23.1603C133.037 22.5784 132.431 22.2874 131.695 22.2874C131.177 22.2874 130.713 22.3551 130.305 22.4904C129.896 22.6122 129.48 22.8152 129.058 23.0994V29.8791C129.575 30.0415 130.121 30.1227 130.693 30.1227Z" fill="#FBFDFF"/>
<path d="M149.611 31.706C149.012 31.8819 148.391 31.9766 147.751 31.9901C147.151 31.9901 146.647 31.8886 146.238 31.6857C145.843 31.4827 145.563 31.1376 145.4 30.6504C144.8 31.097 144.214 31.4353 143.642 31.6654C143.069 31.8954 142.463 32.0104 141.822 32.0104C140.923 32.0104 140.187 31.7533 139.615 31.2391C139.042 30.7113 138.756 30.0618 138.756 29.2904C138.756 28.5191 138.96 27.8898 139.369 27.4027C139.778 26.9155 140.344 26.5231 141.066 26.2254C141.802 25.9276 142.838 25.5893 144.173 25.2104L145.236 24.906V24.4594C145.236 23.7692 145.086 23.2415 144.787 22.8761C144.5 22.4972 144.058 22.3077 143.458 22.3077C142.831 22.3077 142.211 22.4363 141.598 22.6934C140.998 22.9505 140.31 23.4039 139.533 24.0534L138.817 22.2874C140.521 20.9613 142.32 20.2982 144.214 20.2982C145.454 20.2982 146.381 20.6297 146.994 21.2928C147.621 21.9424 147.935 23.0453 147.935 24.6015V29.1889C147.935 29.4866 147.989 29.7032 148.098 29.8385C148.207 29.9603 148.391 30.0212 148.65 30.0212C148.909 30.0212 149.182 29.967 149.468 29.8588L149.611 31.706ZM141.454 28.986C141.454 29.6896 141.85 30.0415 142.64 30.0415C143.035 30.0415 143.437 29.9535 143.846 29.7776C144.255 29.6017 144.719 29.3378 145.236 28.986V26.4689L144.5 26.7125C143.342 27.0914 142.545 27.4433 142.109 27.768C141.673 28.0928 141.454 28.4988 141.454 28.986Z" fill="#FBFDFF"/>
<path d="M40.1062 46.8132C39.5184 46.8132 39.0227 46.6915 38.619 46.4479C38.2152 46.1992 37.9111 45.8694 37.7067 45.4583C37.5074 45.0473 37.4077 44.5982 37.4077 44.111C37.4077 43.6289 37.5125 43.1849 37.722 42.7789C37.9316 42.3679 38.2459 42.0406 38.665 41.797C39.0891 41.5534 39.6002 41.4316 40.1982 41.4316C40.5253 41.4316 40.8345 41.4823 41.1258 41.5838C41.4222 41.6803 41.6726 41.8147 41.8771 41.9873L41.5934 42.581C41.4299 42.4338 41.2254 42.3146 40.9801 42.2232C40.7348 42.1319 40.4742 42.0862 40.1982 42.0862C39.7944 42.0862 39.4469 42.175 39.1556 42.3526C38.8694 42.5303 38.6522 42.7738 38.504 43.0834C38.3558 43.3879 38.2817 43.7329 38.2817 44.1186C38.2817 44.5094 38.3506 44.8595 38.4886 45.1691C38.6317 45.4786 38.8387 45.7222 39.1096 45.8998C39.3856 46.0774 39.7178 46.1662 40.1062 46.1662C40.699 46.1662 41.2229 45.9607 41.6777 45.5497L41.9384 46.1282C41.7084 46.3312 41.4375 46.4961 41.1258 46.6229C40.814 46.7498 40.4742 46.8132 40.1062 46.8132Z" fill="#FBFDFF"/>
<path d="M44.3718 40.6171H45.2151V46.7067H44.3718V40.6171Z" fill="#FBFDFF"/>
<path d="M49.6844 46.2043C49.9348 46.2043 50.1622 46.1535 50.3667 46.0521C50.5762 45.9455 50.7832 45.7958 50.9876 45.6029L51.2713 46.1358C51.0515 46.3591 50.8138 46.5316 50.5583 46.6534C50.3028 46.7701 50.0115 46.8285 49.6844 46.8285C49.2346 46.8285 48.8564 46.7321 48.5498 46.5392C48.2431 46.3464 48.0132 46.085 47.8598 45.7552C47.7116 45.4253 47.6375 45.0574 47.6375 44.6515C47.6375 44.2303 47.7116 43.8547 47.8598 43.5249C48.0132 43.195 48.2431 42.9337 48.5498 42.7409C48.8564 42.548 49.2346 42.4516 49.6844 42.4516C50.175 42.4516 50.566 42.5912 50.8573 42.8703C51.1537 43.1494 51.3019 43.5376 51.3019 44.0349C51.3019 44.1871 51.2815 44.3571 51.2406 44.5449H48.4808V44.6362C48.4808 45.1234 48.5805 45.5065 48.7798 45.7856C48.9842 46.0647 49.2857 46.2043 49.6844 46.2043ZM49.646 43.0453C49.3598 43.0453 49.1247 43.1265 48.9408 43.2889C48.7619 43.4513 48.6341 43.6771 48.5575 43.9664H50.474V43.8903C50.474 43.6162 50.3922 43.4082 50.2287 43.2661C50.0702 43.1189 49.876 43.0453 49.646 43.0453Z" fill="#FBFDFF"/>
<path d="M57.3144 46.6915C57.1764 46.727 57.0614 46.7524 56.9694 46.7676C56.8774 46.7828 56.7726 46.7904 56.6551 46.7904C56.4506 46.7904 56.2794 46.7524 56.1414 46.6762C56.0086 46.595 55.9191 46.458 55.8731 46.2652C55.6431 46.4377 55.4183 46.5697 55.1985 46.661C54.9788 46.7524 54.7539 46.798 54.5239 46.798C54.1968 46.798 53.9285 46.7041 53.719 46.5164C53.5094 46.3235 53.4046 46.085 53.4046 45.8009C53.4046 45.5268 53.4788 45.3035 53.627 45.131C53.7752 44.9534 53.9796 44.8088 54.2403 44.6971C54.506 44.5855 54.8765 44.4612 55.3518 44.3241L55.8425 44.1871V43.9588C55.8425 43.6949 55.7862 43.4868 55.6738 43.3346C55.5665 43.1773 55.3927 43.0986 55.1525 43.0986C54.9123 43.0986 54.6798 43.1494 54.4549 43.2509C54.2351 43.3524 53.9847 43.535 53.7036 43.7989L53.4276 43.2509C54.0307 42.718 54.6772 42.4516 55.3672 42.4516C55.8169 42.4516 56.1491 42.5709 56.3638 42.8094C56.5784 43.0479 56.6857 43.4462 56.6857 44.0044V45.8541C56.6857 45.9658 56.7062 46.047 56.7471 46.0977C56.788 46.1434 56.8544 46.1662 56.9464 46.1662C57.0333 46.1662 57.1406 46.1434 57.2684 46.0977L57.3144 46.6915ZM54.2479 45.7171C54.2479 45.8744 54.2914 45.9912 54.3782 46.0673C54.4702 46.1383 54.5954 46.1738 54.7539 46.1738C54.9174 46.1738 55.0861 46.1358 55.2598 46.0597C55.4336 45.9785 55.6278 45.8592 55.8425 45.7019V44.7124L55.4822 44.8189C55.0222 44.961 54.7002 45.098 54.5162 45.23C54.3374 45.3568 54.2479 45.5192 54.2479 45.7171Z" fill="#FBFDFF"/>
<path d="M61.6864 42.4516C62.1719 42.4516 62.5041 42.5785 62.683 42.8322C62.867 43.0809 62.959 43.4412 62.959 43.9131V46.7067H62.1081V44.0044C62.1081 43.6746 62.0595 43.4412 61.9624 43.3041C61.8704 43.1671 61.6992 43.0986 61.4488 43.0986C61.1115 43.0986 60.7435 43.2483 60.3449 43.5477V46.7067H59.5016V42.5734H60.1455L60.2529 42.9768C60.7537 42.6267 61.2316 42.4516 61.6864 42.4516Z" fill="#FBFDFF"/>
<path d="M66.1476 41.4925C66.0045 41.4925 65.8818 41.4418 65.7796 41.3403C65.6774 41.2388 65.6263 41.1195 65.6263 40.9825C65.6263 40.8404 65.6774 40.7186 65.7796 40.6171C65.8818 40.5106 66.0045 40.4573 66.1476 40.4573C66.2907 40.4573 66.4133 40.5106 66.5155 40.6171C66.6177 40.7186 66.6689 40.8404 66.6689 40.9825C66.6689 41.1195 66.6177 41.2388 66.5155 41.3403C66.4133 41.4418 66.2907 41.4925 66.1476 41.4925ZM65.7259 42.5734H66.5692V46.7067H65.7259V42.5734Z" fill="#FBFDFF"/>
<path d="M71.5658 42.4516C72.0513 42.4516 72.3835 42.5785 72.5624 42.8322C72.7464 43.0809 72.8384 43.4412 72.8384 43.9131V46.7067H71.9874V44.0044C71.9874 43.6746 71.9389 43.4412 71.8418 43.3041C71.7498 43.1671 71.5786 43.0986 71.3282 43.0986C70.9909 43.0986 70.6229 43.2483 70.2242 43.5477V46.7067H69.381V42.5734H70.0249L70.1323 42.9768C70.6331 42.6267 71.111 42.4516 71.5658 42.4516Z" fill="#FBFDFF"/>
<path d="M79.239 43.1976L78.3804 43.1062C78.5082 43.3143 78.5721 43.5503 78.5721 43.8141C78.5721 44.0628 78.5133 44.2912 78.3958 44.4992C78.2782 44.7073 78.0993 44.8747 77.8591 45.0016C77.624 45.1285 77.3327 45.1919 76.9852 45.1919C76.8114 45.1919 76.6556 45.1767 76.5176 45.1462C76.3949 45.2477 76.3055 45.3391 76.2493 45.4203C76.193 45.4964 76.1649 45.575 76.1649 45.6562C76.1649 45.7628 76.2007 45.8389 76.2723 45.8846C76.3489 45.9303 76.4741 45.9531 76.6479 45.9531H77.9128C78.3114 45.9531 78.6206 46.0444 78.8404 46.2271C79.0602 46.4098 79.17 46.6534 79.17 46.9579C79.17 47.2573 79.0653 47.5313 78.8557 47.78C78.6513 48.0286 78.3702 48.224 78.0125 48.3661C77.6547 48.5082 77.2535 48.5792 76.8089 48.5792C76.216 48.5792 75.7867 48.4752 75.521 48.2671C75.2603 48.0591 75.13 47.8028 75.13 47.4983C75.13 47.2953 75.1837 47.1152 75.291 46.9579C75.3983 46.8006 75.5619 46.6407 75.7816 46.4783C75.4852 46.3464 75.337 46.1332 75.337 45.8389C75.337 45.6867 75.3881 45.5421 75.4903 45.405C75.5925 45.2629 75.7561 45.1056 75.9809 44.9331C75.7919 44.8062 75.6462 44.6464 75.544 44.4535C75.4469 44.2607 75.3983 44.0526 75.3983 43.8294C75.3983 43.5807 75.4571 43.3523 75.5746 43.1443C75.6922 42.9362 75.8711 42.7688 76.1113 42.6419C76.3515 42.515 76.6428 42.4516 76.9852 42.4516C77.251 42.4516 77.4912 42.4922 77.7058 42.5734H79.239V43.1976ZM76.9852 44.5982C77.2203 44.5982 77.4068 44.5271 77.5448 44.385C77.6828 44.2429 77.7518 44.0552 77.7518 43.8218C77.7518 43.5883 77.6828 43.4006 77.5448 43.2585C77.412 43.1164 77.2254 43.0453 76.9852 43.0453C76.7552 43.0453 76.5712 43.1164 76.4332 43.2585C76.2953 43.4006 76.2263 43.5883 76.2263 43.8218C76.2263 44.0552 76.2953 44.2429 76.4332 44.385C76.5712 44.5271 76.7552 44.5982 76.9852 44.5982ZM78.3651 47.0797C78.3651 46.76 78.1607 46.6001 77.7518 46.6001H76.4409C76.1036 46.8792 75.935 47.1583 75.935 47.4374C75.935 47.6201 76.0091 47.7521 76.1573 47.8332C76.3106 47.9144 76.5278 47.955 76.8089 47.955C77.1002 47.955 77.3634 47.9119 77.5985 47.8256C77.8387 47.7394 78.0252 47.6277 78.1581 47.4907C78.2961 47.3537 78.3651 47.2167 78.3651 47.0797Z" fill="#FBFDFF"/>
<path d="M86.3696 46.8285C85.9199 46.8285 85.5417 46.7321 85.2351 46.5392C84.9284 46.3464 84.6984 46.085 84.5451 45.7552C84.3969 45.4253 84.3228 45.0574 84.3228 44.6515C84.3228 44.2506 84.3995 43.8852 84.5528 43.5553C84.7061 43.2204 84.9438 42.954 85.2657 42.7561C85.5877 42.5531 85.9889 42.4516 86.4693 42.4516C86.7044 42.4516 86.9369 42.4897 87.1669 42.5658C87.3969 42.6419 87.586 42.7434 87.7342 42.8703L87.4812 43.464C87.3484 43.3473 87.1925 43.2559 87.0136 43.19C86.8347 43.1189 86.6533 43.0834 86.4693 43.0834C86.0605 43.0834 85.7436 43.2255 85.5187 43.5097C85.2938 43.7888 85.1814 44.1668 85.1814 44.6438C85.1814 45.1209 85.2862 45.5015 85.4957 45.7856C85.7053 46.0647 85.9966 46.2043 86.3696 46.2043C86.6099 46.2043 86.8245 46.1586 87.0136 46.0673C87.2027 45.9709 87.3892 45.8389 87.5732 45.6715L87.8569 46.2043C87.678 46.387 87.4608 46.5367 87.2053 46.6534C86.9497 46.7701 86.6712 46.8285 86.3696 46.8285Z" fill="#FBFDFF"/>
<path d="M91.8147 46.8285C91.37 46.8285 90.9944 46.7321 90.6878 46.5392C90.3811 46.3464 90.1511 46.085 89.9978 45.7552C89.8445 45.4253 89.7678 45.0574 89.7678 44.6515C89.7678 44.2303 89.8445 43.8547 89.9978 43.5249C90.1511 43.195 90.3811 42.9337 90.6878 42.7409C90.9944 42.548 91.37 42.4516 91.8147 42.4516C92.2593 42.4516 92.6349 42.5531 92.9416 42.7561C93.2482 42.954 93.4782 43.2179 93.6315 43.5477C93.7849 43.8776 93.8615 44.2404 93.8615 44.6362C93.8615 45.0321 93.7849 45.3974 93.6315 45.7323C93.4782 46.0622 93.2482 46.3286 92.9416 46.5316C92.6349 46.7295 92.2593 46.8285 91.8147 46.8285ZM91.8223 46.2043C92.2108 46.2043 92.5046 46.0673 92.7039 45.7932C92.9084 45.5141 93.0106 45.131 93.0106 44.6438C93.0106 44.1618 92.9084 43.7812 92.7039 43.5021C92.5046 43.2229 92.2108 43.0834 91.8223 43.0834C91.4288 43.0834 91.1324 43.2229 90.9331 43.5021C90.7338 43.7812 90.6341 44.1618 90.6341 44.6438C90.6341 45.131 90.7338 45.5141 90.9331 45.7932C91.1324 46.0673 91.4288 46.2043 91.8223 46.2043Z" fill="#FBFDFF"/>
<path d="M100.976 42.4516C101.446 42.4516 101.768 42.5759 101.942 42.8246C102.115 43.0732 102.202 43.4361 102.202 43.9131V46.7067H101.359V44.0044C101.359 43.6746 101.313 43.4412 101.221 43.3041C101.129 43.1671 100.968 43.0986 100.738 43.0986C100.569 43.0986 100.398 43.1392 100.224 43.2204C100.051 43.2965 99.8615 43.4107 99.6571 43.5629L99.6494 43.5401C99.6597 43.6924 99.6648 43.8167 99.6648 43.9131V46.7067H98.8215V44.0044C98.8215 43.6746 98.7755 43.4412 98.6835 43.3041C98.5915 43.1671 98.4305 43.0986 98.2005 43.0986C97.8888 43.0986 97.5336 43.2483 97.1349 43.5477V46.7067H96.2917V42.5734H96.9356L97.043 42.9768C97.5387 42.6267 98.0038 42.4516 98.4382 42.4516C98.7295 42.4516 98.962 42.4998 99.1358 42.5962C99.3096 42.6926 99.4373 42.8347 99.5191 43.0225C100.04 42.6419 100.526 42.4516 100.976 42.4516Z" fill="#FBFDFF"/>
<path d="M106.903 42.4516C107.256 42.4516 107.568 42.5353 107.839 42.7028C108.11 42.8703 108.319 43.1164 108.467 43.4412C108.621 43.7609 108.697 44.144 108.697 44.5906C108.697 45.3365 108.495 45.8973 108.092 46.2728C107.693 46.6432 107.164 46.8285 106.505 46.8285C106.249 46.8285 106.009 46.7929 105.784 46.7219V48.4955H104.941V42.5658H105.585L105.677 42.9007C106.04 42.6013 106.449 42.4516 106.903 42.4516ZM106.459 46.2043C106.924 46.2043 107.269 46.0622 107.494 45.778C107.724 45.4888 107.839 45.0879 107.839 44.5753C107.839 44.0476 107.742 43.6695 107.547 43.4412C107.358 43.2077 107.121 43.091 106.834 43.091C106.63 43.091 106.446 43.1189 106.282 43.1747C106.124 43.2306 105.958 43.3219 105.784 43.4488V46.0901C105.989 46.1662 106.213 46.2043 106.459 46.2043Z" fill="#FBFDFF"/>
<path d="M114.684 46.6915C114.546 46.727 114.431 46.7524 114.339 46.7676C114.247 46.7828 114.143 46.7904 114.025 46.7904C113.821 46.7904 113.649 46.7524 113.511 46.6762C113.379 46.595 113.289 46.458 113.243 46.2652C113.013 46.4377 112.788 46.5697 112.568 46.661C112.349 46.7524 112.124 46.798 111.894 46.798C111.567 46.798 111.298 46.7041 111.089 46.5164C110.879 46.3235 110.775 46.085 110.775 45.8009C110.775 45.5268 110.849 45.3035 110.997 45.131C111.145 44.9534 111.35 44.8088 111.61 44.6971C111.876 44.5855 112.247 44.4612 112.722 44.3241L113.212 44.1871V43.9588C113.212 43.6949 113.156 43.4868 113.044 43.3346C112.936 43.1773 112.763 43.0986 112.522 43.0986C112.282 43.0986 112.05 43.1494 111.825 43.2509C111.605 43.3524 111.355 43.535 111.074 43.7989L110.798 43.2509C111.401 42.718 112.047 42.4516 112.737 42.4516C113.187 42.4516 113.519 42.5709 113.734 42.8094C113.948 43.0479 114.056 43.4462 114.056 44.0044V45.8541C114.056 45.9658 114.076 46.047 114.117 46.0977C114.158 46.1434 114.224 46.1662 114.316 46.1662C114.403 46.1662 114.511 46.1434 114.638 46.0977L114.684 46.6915ZM111.618 45.7171C111.618 45.8744 111.661 45.9912 111.748 46.0673C111.84 46.1383 111.965 46.1738 112.124 46.1738C112.287 46.1738 112.456 46.1358 112.63 46.0597C112.804 45.9785 112.998 45.8592 113.212 45.7019V44.7124L112.852 44.8189C112.392 44.961 112.07 45.098 111.886 45.23C111.707 45.3568 111.618 45.5192 111.618 45.7171Z" fill="#FBFDFF"/>
<path d="M119.056 42.4516C119.542 42.4516 119.874 42.5785 120.053 42.8322C120.237 43.0809 120.329 43.4412 120.329 43.9131V46.7067H119.478V44.0044C119.478 43.6746 119.429 43.4412 119.332 43.3041C119.24 43.1671 119.069 43.0986 118.819 43.0986C118.481 43.0986 118.113 43.2483 117.715 43.5477V46.7067H116.872V42.5734H117.516L117.623 42.9768C118.124 42.6267 118.602 42.4516 119.056 42.4516Z" fill="#FBFDFF"/>
<path d="M126.599 42.5734L124.805 47.27C124.632 47.7419 124.407 48.0819 124.131 48.29C123.86 48.5031 123.53 48.6097 123.142 48.6097C122.902 48.6097 122.682 48.5741 122.483 48.5031L122.567 47.8561C122.761 47.9119 122.927 47.9398 123.065 47.9398C123.331 47.9398 123.553 47.8612 123.732 47.7038C123.911 47.5516 124.075 47.2801 124.223 46.8894L124.23 46.8665L122.559 42.5734H123.426L124.606 45.8085L125.748 42.5734H126.599Z" fill="#FBFDFF"/>
<path d="M46.5077 28.0522H41.3561L40.0478 31.7871H37.2471L42.6031 17.8015H45.2607L50.6372 31.7871H47.8161L46.5077 28.0522ZM45.8127 26.1036L43.9319 20.7042L42.0307 26.1036H45.8127Z" fill="#FBFDFF"/>
<path d="M62.3655 20.5824V36.5979H59.6671V31.2188C58.7812 31.8007 57.8204 32.0916 56.7846 32.0916C55.8033 32.0916 54.9311 31.8683 54.1679 31.4218C53.4183 30.9752 52.8323 30.3189 52.4098 29.4528C51.9873 28.5867 51.7761 27.538 51.7761 26.3065C51.7761 24.9668 52.0214 23.8504 52.512 22.9573C53.0027 22.0506 53.6568 21.3808 54.4746 20.9477C55.3059 20.5147 56.2258 20.2982 57.2343 20.2982C58.2838 20.2982 59.265 20.6094 60.1781 21.2319L60.4848 20.5824H62.3655ZM57.0504 30.1024C57.5682 30.1024 58.0248 30.0347 58.42 29.8994C58.8289 29.7641 59.2446 29.5543 59.6671 29.2701V22.8558C58.9993 22.4634 58.2838 22.2671 57.5205 22.2671C55.5171 22.2671 54.5154 23.6136 54.5154 26.3065C54.5154 27.6598 54.7539 28.6341 55.2309 29.2295C55.7079 29.8114 56.3144 30.1024 57.0504 30.1024Z" fill="#FBFDFF"/>
<path d="M75.621 20.6027V31.7871H73.5972L73.2701 30.7519C71.9617 31.6451 70.6806 32.0916 69.4268 32.0916C68.0639 32.0916 67.1236 31.7398 66.6057 31.0361C66.0878 30.3189 65.8288 29.2904 65.8288 27.9507V20.6027H68.5273V27.6462C68.5273 28.5394 68.65 29.1686 68.8953 29.534C69.1406 29.8994 69.5903 30.0821 70.2445 30.0821C71.0895 30.0821 71.9822 29.7302 72.9225 29.0265V20.6027H75.621Z" fill="#FBFDFF"/>
<path d="M80.5572 18.1465C80.1211 18.1465 79.7463 17.9909 79.4328 17.6797C79.1194 17.3684 78.9626 16.9963 78.9626 16.5633C78.9626 16.1302 79.1194 15.7581 79.4328 15.4468C79.7463 15.1356 80.1211 14.98 80.5572 14.98C81.0069 14.98 81.3885 15.1356 81.702 15.4468C82.0154 15.7581 82.1722 16.1302 82.1722 16.5633C82.1722 16.9963 82.0154 17.3684 81.702 17.6797C81.3885 17.9909 81.0069 18.1465 80.5572 18.1465ZM79.2284 20.6027H81.9268V31.7871H79.2284V20.6027Z" fill="#FBFDFF"/>
</svg>
