<svg width="123" height="41" viewBox="0 0 123 41" fill="none" xmlns="http://www.w3.org/2000/svg">
<path d="M3.2349 7.60528C3.60325 7.42013 4.05051 7.56885 4.23376 7.93747C4.41696 8.30612 4.2669 8.75519 3.89859 8.94038L2.64555 9.65596L2.61066 9.67242C2.24939 9.83161 1.8242 9.68086 1.64671 9.32378C1.46349 8.95511 1.61368 8.50614 1.98205 8.32097L3.2349 7.60528Z" fill="#1D4670"/>
<path d="M4.2358 1.74212C4.58024 1.96871 4.67514 2.43061 4.44769 2.77369C4.2202 3.11676 3.75646 3.21127 3.412 2.98473L2.16608 2.25681L2.13439 2.23481C1.81597 2.00138 1.73386 1.5576 1.9542 1.22527C2.1817 0.882176 2.64542 0.787823 2.98988 1.01443L4.2358 1.74212Z" fill="#1D4670"/>
<path d="M2.23568 4.67154C2.64721 4.69547 2.96023 5.04801 2.93471 5.45891C2.90914 5.86982 2.55476 6.18366 2.14324 6.15978L0.700471 6.15266L0.662031 6.14946C0.269608 6.1066 -0.0232793 5.76335 0.00145811 5.36531C0.0270271 4.95438 0.381465 4.64069 0.793021 4.66461L2.23568 4.67154Z" fill="#1D4670"/>
<path d="M23.7266 27.214C24.0958 30.8676 21.5617 34.3146 17.9006 34.8969C19.6834 32.7402 20.6633 29.9329 21.6481 27.3474C20.22 30.2222 18.1109 33.3294 15.1542 34.8077C12.5446 34.2551 11.0872 32.1301 10.5831 29.6235C11.9616 29.3625 13.9468 28.6156 16.0127 26.827C17.9922 25.11 19.9969 23.2712 21.2618 20.9402C22.3639 22.8854 23.4906 24.9523 23.7266 27.214Z" fill="#2B5179"/>
<path d="M19.7786 19.5867C18.2713 22.6408 15.9327 25.2925 13.0101 27.0569C12.2366 27.5212 11.3627 27.8133 10.4786 27.9802C10.4786 27.9802 10.4887 27.4697 10.5594 27.1528C10.6187 26.8867 10.7804 26.4905 10.7804 26.4905C11.8023 26.3674 13.0675 25.729 14.3053 24.7776C16.2995 23.2391 18.0968 21.4579 19.7786 19.5867Z" fill="#2B5179"/>
<path d="M15.7686 3.54789C17.3014 3.54789 18.5366 4.04695 19.4002 4.96361C20.2486 5.86411 20.6434 7.06653 20.7147 8.30987C20.8559 10.7736 19.7526 13.6751 17.7883 15.7661C16.1401 17.5206 14.4435 19.4329 13.0301 21.2503C11.6021 23.0866 10.5186 24.7564 10.0326 26.0361C8.09195 31.1459 12.0827 36.359 16.7738 36.359C19.2604 36.359 21.2684 35.6077 22.6458 34.3224C24.0148 33.0448 24.8486 31.1585 24.8486 28.703C24.8486 25.9382 23.6801 23.1026 22.4491 20.9C21.8401 19.8105 21.2305 18.9014 20.7738 18.2659C20.5458 17.9485 20.3566 17.7005 20.226 17.5334C20.1606 17.45 20.1099 17.3868 20.0763 17.3455C20.0596 17.3248 20.0473 17.3094 20.0393 17.2998C20.0354 17.295 20.0324 17.2916 20.0308 17.2897L20.0295 17.2881C19.6904 16.8835 19.7425 16.2801 20.1458 15.9399C20.5491 15.5998 21.1508 15.6519 21.4899 16.0563L20.8031 16.6357C21.49 16.0564 21.4897 16.0561 21.4899 16.0563L21.4907 16.0574C21.4911 16.0578 21.4915 16.0584 21.492 16.059C21.493 16.0602 21.4944 16.0616 21.496 16.0635C21.4993 16.0674 21.5038 16.0728 21.5093 16.0795C21.5205 16.0931 21.5363 16.1124 21.5565 16.1372C21.5968 16.1869 21.6545 16.2589 21.7271 16.3516C21.8722 16.5371 22.0771 16.806 22.3218 17.1465C22.8107 17.8268 23.4618 18.7976 24.1136 19.9638C25.4041 22.2728 26.7568 25.4526 26.7568 28.703C26.7568 31.6172 25.7528 34.0372 23.9457 35.7237C22.1468 37.4024 19.6404 38.2729 16.7738 38.2729C10.7583 38.2729 5.82875 31.7286 8.24957 25.3546L8.30707 25.2075C8.91989 23.6775 10.1219 21.8782 11.5258 20.073C12.9895 18.1909 14.7298 16.2308 16.3995 14.4534C18.0486 12.698 18.9173 10.2969 18.8097 8.41988C18.7566 7.49286 18.4719 6.76501 18.0132 6.27814C17.5698 5.80745 16.8703 5.46187 15.7686 5.46187H9.31067V6.72699L15.4281 10.8177L15.4683 10.846C15.8736 11.1478 15.9759 11.7187 15.6927 12.1448C15.4095 12.5708 14.8448 12.6956 14.4112 12.4364L14.3697 12.4102L7.82737 8.03538C7.56195 7.85789 7.4025 7.5591 7.4025 7.23913V4.50488L7.40383 4.45575C7.42933 3.95006 7.8461 3.5479 8.35658 3.54789H15.7686Z" fill="#1D4670"/>
<path d="M5.46105 3.41117C5.97155 3.41117 6.38831 3.81334 6.41381 4.31903L6.41514 4.36816V6.82899L6.41381 6.87813C6.38831 7.38382 5.97155 7.78598 5.46105 7.78598C4.95055 7.78598 4.53379 7.38382 4.5083 6.87813L4.50697 6.82899V4.36816C4.50697 3.83963 4.93412 3.41117 5.46105 3.41117Z" fill="#1D4670"/>
<path d="M9.73175 8.54985C10.0309 8.14216 10.5996 8.03703 11.0255 8.31914C11.4652 8.61043 11.5861 9.20413 11.2957 9.64515L9.64337 12.1548C9.35299 12.5958 8.76106 12.7173 8.32139 12.4261C7.88173 12.1349 7.7606 11.5411 8.05092 11.1001L9.70353 8.59043L9.73175 8.54985Z" fill="#1D4670"/>
<path d="M80.0218 24.5825V26.2094H72.6628V14.8046H74.9426V24.5825H80.0218Z" fill="#1D4670"/>
<path d="M82.9482 14.9388C82.5906 14.9388 82.2832 14.8102 82.0262 14.5531C81.7692 14.2959 81.6407 13.9884 81.6407 13.6306C81.6407 13.2728 81.7692 12.9653 82.0262 12.7082C82.2832 12.451 82.5906 12.3224 82.9482 12.3224C83.317 12.3224 83.6299 12.451 83.8869 12.7082C84.144 12.9653 84.2725 13.2728 84.2725 13.6306C84.2725 13.9884 84.144 14.2959 83.8869 14.5531C83.6299 14.8102 83.317 14.9388 82.9482 14.9388ZM81.8586 16.9682H84.0713V26.2094H81.8586V16.9682Z" fill="#1D4670"/>
<path d="M97.7421 16.7166C98.8373 16.7166 99.5917 17.0129 100.005 17.6055C100.419 18.1869 100.625 19.0311 100.625 20.138V26.2094H98.4294V20.3896C98.4294 19.6517 98.3288 19.1317 98.1277 18.8298C97.9377 18.528 97.5857 18.377 97.0716 18.377C96.4234 18.377 95.7026 18.6733 94.9091 19.2659L94.8756 19.182C94.9091 19.4839 94.9259 19.8026 94.9259 20.138V26.2094H92.7299V20.3896C92.7299 19.6517 92.6293 19.1317 92.4282 18.8298C92.2382 18.528 91.8862 18.377 91.3721 18.377C90.7127 18.377 90.0031 18.6677 89.2432 19.2491V26.2094H87.0304V16.9682H88.69L88.9582 17.8235C90.0422 17.0856 91.0704 16.7166 92.0426 16.7166C92.6796 16.7166 93.1937 16.8228 93.5848 17.0353C93.9871 17.2365 94.2945 17.5328 94.5068 17.9242C95.6579 17.1191 96.7363 16.7166 97.7421 16.7166Z" fill="#1D4670"/>
<path d="M108.059 16.7166C108.864 16.7166 109.574 16.9067 110.188 17.2868C110.814 17.6558 111.3 18.2037 111.647 18.9305C111.993 19.6572 112.166 20.5238 112.166 21.5301C112.166 23.1961 111.703 24.4372 110.775 25.2534C109.859 26.0584 108.646 26.461 107.137 26.461C106.59 26.461 106.104 26.3995 105.679 26.2765V30.134H103.466V16.9514H105.126L105.36 17.6726C106.143 17.0353 107.042 16.7166 108.059 16.7166ZM107.02 24.8341C108.003 24.8341 108.73 24.549 109.199 23.9788C109.68 23.3973 109.92 22.5643 109.92 21.4798C109.92 20.3617 109.724 19.5622 109.333 19.0814C108.942 18.6006 108.445 18.3602 107.841 18.3602C107.417 18.3602 107.037 18.4161 106.702 18.528C106.366 18.6286 106.025 18.7963 105.679 19.0311V24.6329C106.104 24.767 106.551 24.8341 107.02 24.8341Z" fill="#1D4670"/>
<path d="M122.533 26.1423C122.041 26.2877 121.533 26.3659 121.007 26.3771C120.516 26.3771 120.102 26.2932 119.767 26.1255C119.443 25.9578 119.214 25.6727 119.08 25.2702C118.588 25.6392 118.107 25.9187 117.638 26.1088C117.169 26.2988 116.671 26.3939 116.146 26.3939C115.409 26.3939 114.805 26.1814 114.336 25.7566C113.866 25.3205 113.632 24.7838 113.632 24.1465C113.632 23.5091 113.799 22.9892 114.135 22.5867C114.47 22.1842 114.934 21.8599 115.526 21.6139C116.129 21.368 116.979 21.0884 118.074 20.7754L118.946 20.5238V20.1548C118.946 19.5846 118.823 19.1485 118.577 18.8466C118.342 18.5335 117.979 18.377 117.487 18.377C116.973 18.377 116.465 18.4832 115.962 18.6957C115.47 18.9081 114.906 19.2827 114.269 19.8194L113.682 18.3602C115.079 17.2645 116.554 16.7166 118.107 16.7166C119.124 16.7166 119.884 16.9905 120.387 17.5384C120.901 18.0751 121.158 18.9864 121.158 20.2722V24.0626C121.158 24.3086 121.203 24.4875 121.292 24.5993C121.382 24.6999 121.533 24.7503 121.745 24.7503C121.957 24.7503 122.181 24.7055 122.416 24.6161L122.533 26.1423ZM115.844 23.8949C115.844 24.4763 116.168 24.767 116.817 24.767C117.141 24.767 117.47 24.6943 117.806 24.549C118.141 24.4036 118.521 24.1856 118.946 23.8949V21.8152L118.342 22.0165C117.392 22.3295 116.738 22.6202 116.381 22.8886C116.023 23.1569 115.844 23.4924 115.844 23.8949Z" fill="#1D4670"/>
<path d="M32.7389 38.6247C32.2569 38.6247 31.8504 38.524 31.5193 38.3228C31.1883 38.1173 30.9389 37.8448 30.7713 37.5051C30.6078 37.1655 30.5261 36.7944 30.5261 36.3919C30.5261 35.9936 30.612 35.6267 30.7839 35.2913C30.9557 34.9517 31.2134 34.6812 31.5571 34.4799C31.9049 34.2787 32.324 34.1781 32.8143 34.1781C33.0825 34.1781 33.3361 34.22 33.5749 34.3038C33.818 34.3835 34.0234 34.4946 34.191 34.6372L33.9584 35.1278C33.8243 35.0062 33.6567 34.9076 33.4555 34.8322C33.2543 34.7567 33.0406 34.7189 32.8143 34.7189C32.4832 34.7189 32.1983 34.7923 31.9594 34.9391C31.7247 35.0858 31.5466 35.2871 31.4251 35.5429C31.3035 35.7944 31.2428 36.0795 31.2428 36.3982C31.2428 36.7211 31.2993 37.0104 31.4125 37.2661C31.5298 37.5219 31.6996 37.7232 31.9217 37.8699C32.148 38.0167 32.4204 38.0901 32.7389 38.0901C33.225 38.0901 33.6546 37.9202 34.0275 37.5806L34.2413 38.0586C34.0527 38.2263 33.8306 38.3626 33.5749 38.4674C33.3193 38.5722 33.0406 38.6247 32.7389 38.6247Z" fill="#1D4670"/>
<path d="M36.2367 33.5051H36.9282V38.5366H36.2367V33.5051Z" fill="#1D4670"/>
<path d="M40.593 38.1215C40.7983 38.1215 40.9848 38.0796 41.1525 37.9957C41.3243 37.9077 41.494 37.784 41.6616 37.6246L41.8942 38.0649C41.714 38.2494 41.5192 38.3919 41.3096 38.4926C41.1001 38.589 40.8612 38.6372 40.593 38.6372C40.2242 38.6372 39.9141 38.5576 39.6626 38.3982C39.4112 38.2389 39.2226 38.023 39.0969 37.7504C38.9753 37.4779 38.9146 37.1739 38.9146 36.8385C38.9146 36.4905 38.9753 36.1802 39.0969 35.9076C39.2226 35.6351 39.4112 35.4192 39.6626 35.2598C39.9141 35.1005 40.2242 35.0208 40.593 35.0208C40.9953 35.0208 41.3159 35.1361 41.5548 35.3668C41.7978 35.5974 41.9194 35.9181 41.9194 36.329C41.9194 36.4548 41.9026 36.5953 41.8691 36.7504H39.6061V36.8259C39.6061 37.2284 39.6878 37.545 39.8512 37.7756C40.0188 38.0062 40.2661 38.1215 40.593 38.1215ZM40.5616 35.5114C40.3269 35.5114 40.1341 35.5785 39.9832 35.7127C39.8365 35.8468 39.7318 36.0334 39.6689 36.2724H41.2405V36.2095C41.2405 35.9831 41.1734 35.8112 41.0393 35.6938C40.9094 35.5722 40.7501 35.5114 40.5616 35.5114Z" fill="#1D4670"/>
<path d="M46.8496 38.524C46.7364 38.5534 46.6421 38.5743 46.5667 38.5869C46.4913 38.5995 46.4054 38.6058 46.309 38.6058C46.1413 38.6058 46.0009 38.5743 45.8878 38.5114C45.7788 38.4444 45.7055 38.3311 45.6678 38.1718C45.4792 38.3144 45.2948 38.4234 45.1146 38.4989C44.9344 38.5743 44.75 38.6121 44.5614 38.6121C44.2932 38.6121 44.0732 38.5345 43.9013 38.3794C43.7295 38.22 43.6436 38.023 43.6436 37.7882C43.6436 37.5617 43.7044 37.3773 43.8259 37.2347C43.9474 37.0879 44.1151 36.9684 44.3288 36.8762C44.5467 36.784 44.8506 36.6812 45.2403 36.568L45.6426 36.4548V36.2661C45.6426 36.0481 45.5965 35.8762 45.5043 35.7504C45.4163 35.6204 45.2738 35.5554 45.0769 35.5554C44.8799 35.5554 44.6892 35.5974 44.5048 35.6812C44.3246 35.7651 44.1193 35.916 43.8888 36.1341L43.6625 35.6812C44.157 35.241 44.6871 35.0208 45.2529 35.0208C45.6217 35.0208 45.8941 35.1194 46.0701 35.3164C46.2461 35.5135 46.3341 35.8426 46.3341 36.3039V37.8322C46.3341 37.9244 46.3509 37.9915 46.3844 38.0335C46.4179 38.0712 46.4724 38.0901 46.5478 38.0901C46.6191 38.0901 46.7071 38.0712 46.8119 38.0335L46.8496 38.524ZM44.3351 37.719C44.3351 37.849 44.3707 37.9454 44.442 38.0083C44.5174 38.067 44.6201 38.0963 44.75 38.0963C44.8841 38.0963 45.0224 38.0649 45.1649 38.002C45.3074 37.9349 45.4666 37.8364 45.6426 37.7064V36.8888L45.3472 36.9768C44.97 37.0942 44.706 37.2074 44.5551 37.3165C44.4084 37.4213 44.3351 37.5555 44.3351 37.719Z" fill="#1D4670"/>
<path d="M50.4347 35.0208C50.8328 35.0208 51.1052 35.1257 51.2519 35.3353C51.4028 35.5408 51.4782 35.8385 51.4782 36.2284V38.5366H50.7804V36.3039C50.7804 36.0313 50.7406 35.8385 50.661 35.7252C50.5855 35.612 50.4452 35.5554 50.2398 35.5554C49.9632 35.5554 49.6615 35.6791 49.3346 35.9265V38.5366H48.6431V35.1215H49.1711L49.2592 35.4548C49.6699 35.1655 50.0617 35.0208 50.4347 35.0208Z" fill="#1D4670"/>
<path d="M54.0928 34.2284C53.9755 34.2284 53.8749 34.1864 53.7911 34.1026C53.7072 34.0187 53.6653 33.9202 53.6653 33.807C53.6653 33.6896 53.7072 33.589 53.7911 33.5051C53.8749 33.417 53.9755 33.373 54.0928 33.373C54.2101 33.373 54.3107 33.417 54.3945 33.5051C54.4784 33.589 54.5203 33.6896 54.5203 33.807C54.5203 33.9202 54.4784 34.0187 54.3945 34.1026C54.3107 34.1864 54.2101 34.2284 54.0928 34.2284ZM53.7471 35.1215H54.4385V38.5366H53.7471V35.1215Z" fill="#1D4670"/>
<path d="M58.5358 35.0208C58.9339 35.0208 59.2063 35.1257 59.353 35.3353C59.5038 35.5408 59.5793 35.8385 59.5793 36.2284V38.5366H58.8815V36.3039C58.8815 36.0313 58.8417 35.8385 58.7621 35.7252C58.6866 35.612 58.5462 35.5554 58.3409 35.5554C58.0643 35.5554 57.7626 35.6791 57.4357 35.9265V38.5366H56.7442V35.1215H57.2722L57.3602 35.4548C57.7709 35.1655 58.1628 35.0208 58.5358 35.0208Z" fill="#1D4670"/>
<path d="M64.8278 35.6372L64.1238 35.5617C64.2285 35.7336 64.2809 35.9286 64.2809 36.1466C64.2809 36.3521 64.2327 36.5408 64.1363 36.7127C64.0399 36.8846 63.8933 37.023 63.6963 37.1278C63.5035 37.2326 63.2646 37.285 62.9797 37.285C62.8372 37.285 62.7094 37.2724 62.5962 37.2473C62.4956 37.3311 62.4223 37.4066 62.3762 37.4737C62.3301 37.5366 62.307 37.6016 62.307 37.6687C62.307 37.7567 62.3364 37.8196 62.3951 37.8573C62.4579 37.8951 62.5606 37.914 62.7031 37.914H63.7403C64.0672 37.914 64.3207 37.9894 64.5009 38.1404C64.6811 38.2913 64.7712 38.4926 64.7712 38.7442C64.7712 38.9915 64.6853 39.218 64.5135 39.4234C64.3459 39.6289 64.1154 39.7903 63.822 39.9077C63.5287 40.0251 63.1997 40.0838 62.8351 40.0838C62.349 40.0838 61.9969 39.9978 61.779 39.8259C61.5653 39.654 61.4584 39.4423 61.4584 39.1907C61.4584 39.023 61.5024 38.8741 61.5904 38.7442C61.6784 38.6142 61.8125 38.4821 61.9927 38.3479C61.7497 38.2389 61.6281 38.0628 61.6281 37.8196C61.6281 37.6938 61.67 37.5743 61.7539 37.4611C61.8377 37.3437 61.9718 37.2137 62.1562 37.0712C62.0011 36.9664 61.8817 36.8343 61.7979 36.6749C61.7182 36.5156 61.6784 36.3437 61.6784 36.1592C61.6784 35.9538 61.7266 35.7651 61.823 35.5932C61.9194 35.4213 62.0661 35.2829 62.263 35.1781C62.46 35.0732 62.6989 35.0208 62.9797 35.0208C63.1976 35.0208 63.3946 35.0544 63.5706 35.1215H64.8278V35.6372ZM62.9797 36.7944C63.1724 36.7944 63.3254 36.7357 63.4386 36.6183C63.5517 36.5009 63.6083 36.3458 63.6083 36.1529C63.6083 35.96 63.5517 35.8049 63.4386 35.6875C63.3296 35.5701 63.1766 35.5114 62.9797 35.5114C62.7911 35.5114 62.6402 35.5701 62.5271 35.6875C62.4139 35.8049 62.3573 35.96 62.3573 36.1529C62.3573 36.3458 62.4139 36.5009 62.5271 36.6183C62.6402 36.7357 62.7911 36.7944 62.9797 36.7944ZM64.1112 38.8448C64.1112 38.5806 63.9436 38.4486 63.6083 38.4486H62.5333C62.2568 38.6792 62.1185 38.9098 62.1185 39.1404C62.1185 39.2913 62.1792 39.4003 62.3008 39.4674C62.4265 39.5345 62.6046 39.5681 62.8351 39.5681C63.074 39.5681 63.2898 39.5324 63.4826 39.4611C63.6795 39.3899 63.8325 39.2976 63.9415 39.1844C64.0546 39.0712 64.1112 38.958 64.1112 38.8448Z" fill="#1D4670"/>
<path d="M70.6749 38.6372C70.3061 38.6372 69.996 38.5576 69.7446 38.3982C69.4931 38.2389 69.3045 38.023 69.1788 37.7504C69.0573 37.4779 68.9965 37.1739 68.9965 36.8385C68.9965 36.5072 69.0594 36.2053 69.1851 35.9328C69.3108 35.6561 69.5057 35.4359 69.7697 35.2724C70.0337 35.1047 70.3627 35.0208 70.7566 35.0208C70.9494 35.0208 71.1401 35.0523 71.3287 35.1152C71.5173 35.1781 71.6723 35.2619 71.7939 35.3668L71.5864 35.8573C71.4775 35.7609 71.3496 35.6854 71.203 35.6309C71.0563 35.5722 70.9075 35.5429 70.7566 35.5429C70.4214 35.5429 70.1615 35.6603 69.9771 35.8951C69.7927 36.1257 69.7006 36.438 69.7006 36.8322C69.7006 37.2263 69.7865 37.5408 69.9583 37.7756C70.1301 38.0062 70.369 38.1215 70.6749 38.1215C70.8719 38.1215 71.0479 38.0838 71.203 38.0083C71.358 37.9286 71.511 37.8196 71.6618 37.6812L71.8944 38.1215C71.7478 38.2724 71.5696 38.3961 71.3601 38.4926C71.1506 38.589 70.9222 38.6372 70.6749 38.6372Z" fill="#1D4670"/>
<path d="M75.1398 38.6372C74.7752 38.6372 74.4672 38.5576 74.2158 38.3982C73.9643 38.2389 73.7757 38.023 73.65 37.7504C73.5243 37.4779 73.4614 37.1739 73.4614 36.8385C73.4614 36.4905 73.5243 36.1802 73.65 35.9076C73.7757 35.6351 73.9643 35.4192 74.2158 35.2598C74.4672 35.1005 74.7752 35.0208 75.1398 35.0208C75.5044 35.0208 75.8125 35.1047 76.0639 35.2724C76.3154 35.4359 76.5039 35.654 76.6297 35.9265C76.7554 36.199 76.8183 36.4988 76.8183 36.8259C76.8183 37.1529 76.7554 37.4548 76.6297 37.7316C76.5039 38.0041 76.3154 38.2242 76.0639 38.3919C75.8125 38.5555 75.5044 38.6372 75.1398 38.6372ZM75.1461 38.1215C75.4646 38.1215 75.7056 38.0083 75.869 37.7819C76.0367 37.5513 76.1205 37.2347 76.1205 36.8322C76.1205 36.4339 76.0367 36.1194 75.869 35.8888C75.7056 35.6582 75.4646 35.5429 75.1461 35.5429C74.8234 35.5429 74.5804 35.6582 74.4169 35.8888C74.2535 36.1194 74.1718 36.4339 74.1718 36.8322C74.1718 37.2347 74.2535 37.5513 74.4169 37.7819C74.5804 38.0083 74.8234 38.1215 75.1461 38.1215Z" fill="#1D4670"/>
<path d="M82.6518 35.0208C83.0374 35.0208 83.3014 35.1236 83.4439 35.329C83.5864 35.5345 83.6576 35.8343 83.6576 36.2284V38.5366H82.9662V36.3039C82.9662 36.0313 82.9284 35.8385 82.853 35.7252C82.7776 35.612 82.6456 35.5554 82.457 35.5554C82.3187 35.5554 82.1783 35.589 82.0358 35.6561C81.8933 35.719 81.7382 35.8133 81.5706 35.9391L81.5643 35.9202C81.5727 36.046 81.5769 36.1487 81.5769 36.2284V38.5366H80.8854V36.3039C80.8854 36.0313 80.8477 35.8385 80.7723 35.7252C80.6968 35.612 80.5648 35.5554 80.3762 35.5554C80.1206 35.5554 79.8293 35.6791 79.5025 35.9265V38.5366H78.811V35.1215H79.339L79.427 35.4548C79.8335 35.1655 80.2149 35.0208 80.5711 35.0208C80.81 35.0208 81.0007 35.0607 81.1432 35.1403C81.2856 35.22 81.3904 35.3374 81.4575 35.4925C81.8849 35.1781 82.2831 35.0208 82.6518 35.0208Z" fill="#1D4670"/>
<path d="M87.5126 35.0208C87.8018 35.0208 88.0574 35.09 88.2795 35.2284C88.5016 35.3668 88.6735 35.5701 88.795 35.8385C88.9207 36.1026 88.9836 36.4192 88.9836 36.7882C88.9836 37.4045 88.818 37.8678 88.487 38.1781C88.1601 38.4842 87.7263 38.6372 87.1857 38.6372C86.9762 38.6372 86.7792 38.6079 86.5948 38.5492V40.0146H85.9033V35.1152H86.4314L86.5068 35.3919C86.8044 35.1445 87.1396 35.0208 87.5126 35.0208ZM87.148 38.1215C87.5294 38.1215 87.8122 38.0041 87.9966 37.7693C88.1852 37.5303 88.2795 37.1991 88.2795 36.7756C88.2795 36.3395 88.1999 36.0271 88.0406 35.8385C87.8856 35.6456 87.6907 35.5491 87.456 35.5491C87.2884 35.5491 87.1375 35.5722 87.0034 35.6183C86.8735 35.6645 86.7373 35.7399 86.5948 35.8447V38.0272C86.7625 38.0901 86.9468 38.1215 87.148 38.1215Z" fill="#1D4670"/>
<path d="M93.893 38.524C93.7798 38.5534 93.6855 38.5743 93.6101 38.5869C93.5346 38.5995 93.4487 38.6058 93.3523 38.6058C93.1847 38.6058 93.0443 38.5743 92.9312 38.5114C92.8222 38.4444 92.7489 38.3311 92.7111 38.1718C92.5226 38.3144 92.3382 38.4234 92.158 38.4989C91.9778 38.5743 91.7934 38.6121 91.6048 38.6121C91.3366 38.6121 91.1165 38.5345 90.9447 38.3794C90.7729 38.22 90.687 38.023 90.687 37.7882C90.687 37.5617 90.7478 37.3773 90.8693 37.2347C90.9908 37.0879 91.1585 36.9684 91.3722 36.8762C91.5901 36.784 91.8939 36.6812 92.2837 36.568L92.686 36.4548V36.2661C92.686 36.0481 92.6399 35.8762 92.5477 35.7504C92.4597 35.6204 92.3172 35.5554 92.1202 35.5554C91.9233 35.5554 91.7326 35.5974 91.5482 35.6812C91.368 35.7651 91.1626 35.916 90.9321 36.1341L90.7058 35.6812C91.2004 35.241 91.7305 35.0208 92.2963 35.0208C92.665 35.0208 92.9375 35.1194 93.1135 35.3164C93.2895 35.5135 93.3775 35.8426 93.3775 36.3039V37.8322C93.3775 37.9244 93.3942 37.9915 93.4278 38.0335C93.4613 38.0712 93.5158 38.0901 93.5912 38.0901C93.6625 38.0901 93.7505 38.0712 93.8552 38.0335L93.893 38.524ZM91.3785 37.719C91.3785 37.849 91.4141 37.9454 91.4853 38.0083C91.5608 38.067 91.6634 38.0963 91.7934 38.0963C91.9275 38.0963 92.0658 38.0649 92.2083 38.002C92.3507 37.9349 92.51 37.8364 92.686 37.7064V36.8888L92.3905 36.9768C92.0134 37.0942 91.7494 37.2074 91.5985 37.3165C91.4518 37.4213 91.3785 37.5555 91.3785 37.719Z" fill="#1D4670"/>
<path d="M97.4781 35.0208C97.8762 35.0208 98.1486 35.1257 98.2953 35.3353C98.4461 35.5408 98.5216 35.8385 98.5216 36.2284V38.5366H97.8238V36.3039C97.8238 36.0313 97.784 35.8385 97.7044 35.7252C97.6289 35.612 97.4885 35.5554 97.2832 35.5554C97.0066 35.5554 96.7048 35.6791 96.378 35.9265V38.5366H95.6865V35.1215H96.2145L96.3025 35.4548C96.7132 35.1655 97.1051 35.0208 97.4781 35.0208Z" fill="#1D4670"/>
<path d="M103.663 35.1215L102.192 39.002C102.05 39.392 101.865 39.6729 101.639 39.8448C101.417 40.0209 101.147 40.1089 100.828 40.1089C100.631 40.1089 100.451 40.0796 100.288 40.0209L100.357 39.4863C100.516 39.5324 100.652 39.5555 100.765 39.5555C100.983 39.5555 101.166 39.4905 101.312 39.3605C101.459 39.2347 101.593 39.0104 101.715 38.6875L101.721 38.6687L100.35 35.1215H101.061L102.029 37.7945L102.965 35.1215H103.663Z" fill="#1D4670"/>
<path d="M37.9882 23.1234H33.7638L32.691 26.2094H30.3944L34.7864 14.6537H36.9656L41.3743 26.2094H39.061L37.9882 23.1234ZM37.4182 21.5133L35.876 17.052L34.317 21.5133H37.4182Z" fill="#1D4670"/>
<path d="M50.9916 16.9514V30.1843H48.7788V25.7398C48.0524 26.2206 47.2645 26.461 46.4152 26.461C45.6106 26.461 44.8953 26.2765 44.2695 25.9075C43.6549 25.5385 43.1743 24.9962 42.8279 24.2806C42.4814 23.5651 42.3082 22.6985 42.3082 21.681C42.3082 20.5741 42.5094 19.6517 42.9117 18.9137C43.314 18.1646 43.8504 17.6111 44.521 17.2533C45.2027 16.8955 45.957 16.7166 46.784 16.7166C47.6445 16.7166 48.4492 16.9738 49.1979 17.4881L49.4494 16.9514H50.9916ZM46.6331 24.8173C47.0578 24.8173 47.4322 24.7614 47.7563 24.6496C48.0915 24.5378 48.4324 24.3645 48.7788 24.1297V18.8298C48.2312 18.5056 47.6445 18.3435 47.0187 18.3435C45.3759 18.3435 44.5545 19.456 44.5545 21.681C44.5545 22.7991 44.7501 23.6042 45.1412 24.0962C45.5324 24.5769 46.0297 24.8173 46.6331 24.8173Z" fill="#1D4670"/>
<path d="M61.8611 16.9682V26.2094H60.2015L59.9333 25.354C58.8605 26.092 57.81 26.461 56.7818 26.461C55.6643 26.461 54.8932 26.1703 54.4685 25.5888C54.0438 24.9962 53.8315 24.1465 53.8315 23.0395V16.9682H56.0442V22.788C56.0442 23.5259 56.1448 24.0458 56.346 24.3477C56.5471 24.6496 56.9159 24.8006 57.4523 24.8006C58.1452 24.8006 58.8772 24.5099 59.6483 23.9284V16.9682H61.8611Z" fill="#1D4670"/>
<path d="M65.9087 14.9388C65.5511 14.9388 65.2438 14.8102 64.9867 14.5531C64.7297 14.2959 64.6012 13.9884 64.6012 13.6306C64.6012 13.2728 64.7297 12.9653 64.9867 12.7082C65.2438 12.451 65.5511 12.3224 65.9087 12.3224C66.2775 12.3224 66.5904 12.451 66.8475 12.7082C67.1045 12.9653 67.233 13.2728 67.233 13.6306C67.233 13.9884 67.1045 14.2959 66.8475 14.5531C66.5904 14.8102 66.2775 14.9388 65.9087 14.9388ZM64.8191 16.9682H67.0319V26.2094H64.8191V16.9682Z" fill="#1D4670"/>
</svg>
