<svg width="34" height="34" viewBox="0 0 34 34" fill="none" xmlns="http://www.w3.org/2000/svg">
<path d="M19.8332 19.8333C20.6156 19.8333 21.2498 20.4676 21.2498 21.25V29.75C21.2498 30.5324 20.6156 31.1667 19.8332 31.1667H14.1665C13.3841 31.1667 12.7498 30.5324 12.7498 29.75V21.25C12.7498 20.4676 13.3841 19.8333 14.1665 19.8333H19.8332ZM15.5832 28.3333H18.4165V22.6667H15.5832V28.3333ZM14.1665 14.1667L14.2031 14.1671C14.9686 14.1865 15.5831 14.8131 15.5832 15.5833C15.5832 16.3535 14.9686 16.9801 14.2031 16.9995L14.1665 17H11.3332C10.5508 17 9.9165 16.3657 9.9165 15.5833C9.91651 14.8009 10.5508 14.1667 11.3332 14.1667H14.1665ZM22.6665 14.1667L22.7031 14.1671C23.4686 14.1865 24.0831 14.8131 24.0832 15.5833C24.0832 16.3535 23.4686 16.9801 22.7031 16.9995L22.6665 17H19.8332C19.0508 17 18.4165 16.3657 18.4165 15.5833C18.4165 14.8009 19.0508 14.1667 19.8332 14.1667H22.6665ZM14.1665 8.5L14.2031 8.50046C14.9686 8.51986 15.5832 9.14648 15.5832 9.91665C15.5832 10.6868 14.9686 11.3134 14.2031 11.3328L14.1665 11.3333H11.3332C10.5508 11.3333 9.9165 10.6991 9.9165 9.91665C9.9165 9.13425 10.5508 8.5 11.3332 8.5H14.1665ZM22.6665 8.5L22.7031 8.50046C23.4686 8.51986 24.0832 9.14648 24.0832 9.91665C24.0832 10.6868 23.4686 11.3134 22.7031 11.3328L22.6665 11.3333H19.8332C19.0508 11.3333 18.4165 10.6991 18.4165 9.91665C18.4165 9.13425 19.0508 8.5 19.8332 8.5H22.6665Z" fill="#1D4670"/>
<path d="M7.0835 5.66668V28.3334H26.9168V5.66668H7.0835ZM29.7501 28.3334L29.7867 28.3338C30.5522 28.3532 31.1668 28.9798 31.1668 29.75C31.1668 30.5202 30.5522 31.1468 29.7867 31.1662L29.7501 31.1667H4.25015C3.46775 31.1667 2.8335 30.5324 2.8335 29.75C2.8335 28.9798 3.44808 28.3532 4.21358 28.3338L4.25015 28.3334V5.66668C4.25015 4.91524 4.54867 4.19459 5.08002 3.66324C5.61137 3.13189 6.33205 2.83337 7.0835 2.83337H26.9168C27.6682 2.83337 28.3889 3.13189 28.9203 3.66324C29.4516 4.1946 29.7501 4.91524 29.7501 5.66668V28.3334Z" fill="#1D4670"/>
</svg>
