<svg width="34" height="34" viewBox="0 0 34 34" fill="none" xmlns="http://www.w3.org/2000/svg">
<path d="M19.8333 19.8334C20.6157 19.8334 21.25 20.4676 21.25 21.25V29.75C21.25 30.5324 20.6157 31.1667 19.8333 31.1667H14.1667C13.3842 31.1667 12.75 30.5324 12.75 29.75V21.25C12.75 20.4676 13.3842 19.8334 14.1667 19.8334H19.8333ZM15.5833 28.3334H18.4167V22.6667H15.5833V28.3334Z" fill="#1D4670"/>
<path d="M25.7814 2.83335C26.4049 2.81824 27.0163 3.00915 27.5206 3.37726C28.0325 3.75096 28.4042 4.28549 28.5765 4.89527H28.5766L31.1124 13.7778C31.2344 14.2052 31.1488 14.6651 30.8811 15.0199C30.6134 15.3747 30.1947 15.5834 29.7502 15.5834V29.75C29.7502 30.5324 29.1159 31.1667 28.3335 31.1667H5.66683C4.88443 31.1667 4.25018 30.5324 4.25018 29.75V15.5834C3.80717 15.5834 3.38967 15.3761 3.12181 15.0233C2.85395 14.6704 2.76656 14.2126 2.88565 13.7859L5.36485 4.90336L5.36501 4.90265C5.5364 4.2898 5.90913 3.75247 6.42311 3.37726C6.92738 3.00915 7.53882 2.81824 8.16229 2.83335H25.7814ZM13.7519 15.1684C13.4945 15.4258 13.1483 15.5739 12.7854 15.5829L12.7502 15.5834H7.08352V28.3334H26.9168V15.5834H21.2502C20.8745 15.5834 20.5141 15.4341 20.2484 15.1684L17.0002 11.9202L13.7519 15.1684ZM25.85 5.6657C25.8326 5.66635 25.8151 5.6667 25.7977 5.6667H8.14602C8.12857 5.6667 8.11108 5.66635 8.09364 5.6657L6.1164 12.75H12.1634L15.9984 8.91496L16.0246 8.88944C16.5796 8.36185 17.4573 8.37036 18.0019 8.91496L21.837 12.75H27.8725L25.8521 5.67309C25.8514 5.67064 25.8507 5.66816 25.85 5.6657Z" fill="#1D4670"/>
</svg>
