<svg width="35" height="34" viewBox="0 0 35 34" fill="none" xmlns="http://www.w3.org/2000/svg">
<path d="M23.1668 21.25C23.9492 21.25 24.5835 21.8842 24.5835 22.6667V29.75C24.5835 30.5324 23.9492 31.1667 23.1668 31.1667H17.5001C16.7178 31.1667 16.0835 30.5324 16.0835 29.75V22.6667C16.0835 21.8842 16.7177 21.25 17.5001 21.25H23.1668ZM18.9168 28.3333H21.7501V24.0833H18.9168V28.3333Z" fill="#1D4670"/>
<path d="M4.75 29.75V4.49089C4.75 4.07456 4.93313 3.6793 5.25074 3.41013C5.56836 3.14096 5.9883 3.02513 6.39899 3.09341L29.0656 6.86172C29.749 6.97533 30.25 7.5665 30.25 8.25924V29.75C30.25 30.5324 29.6157 31.1667 28.8333 31.1667H11.8333C11.0509 31.1667 10.4167 30.5324 10.4167 29.75V17H7.58331V29.75C7.58331 30.5324 6.94906 31.1667 6.16665 31.1667C5.38425 31.1667 4.75 30.5324 4.75 29.75ZM13.25 28.3334H27.4167V17H13.25V28.3334ZM7.58331 14.1667H27.4167V9.45982L7.58331 6.1625V14.1667Z" fill="#1D4670"/>
<path d="M3.35327 4.01257C3.48236 3.25329 4.19329 2.73855 4.95121 2.84772L4.98736 2.85337L6.39887 3.09338L6.39891 3.09334L29.0656 6.86169C29.0673 6.86197 29.069 6.86227 29.0707 6.86256L30.4874 7.10337L30.5233 7.10997C31.2747 7.25738 31.7756 7.97817 31.6466 8.73746C31.5175 9.49673 30.8065 10.0115 30.0486 9.90231L30.0125 9.89666L28.6009 9.65665V9.65669L5.93423 5.88834C5.93254 5.88806 5.93086 5.88775 5.92917 5.88747L4.51248 5.64666L4.47653 5.64006C3.7251 5.49265 3.22419 4.77186 3.35327 4.01257Z" fill="#1D4670"/>
</svg>
